<?xml version="1.0" standalone="no"?>
<!DOCTYPE svg PUBLIC "-//W3C//DTD SVG 20010904//EN"
 "http://www.w3.org/TR/2001/REC-SVG-20010904/DTD/svg10.dtd">
<svg version="1.0" xmlns="http://www.w3.org/2000/svg"
 width="512.000000pt" height="512.000000pt" viewBox="0 0 512.000000 512.000000"
 preserveAspectRatio="xMidYMid meet">
<metadata>
Created by potrace 1.11, written by Peter Selinger 2001-2013
</metadata>
<g transform="translate(0.000000,512.000000) scale(0.100000,-0.100000)"
fill="#000000" stroke="none">
<path d="M3265 5110 c-32 -13 -68 -57 -318 -382 -130 -169 -258 -335 -284
-370 -27 -35 -98 -128 -158 -208 -61 -80 -112 -147 -115 -150 -3 -3 -80 -102
-171 -220 -388 -505 -682 -886 -698 -905 -9 -11 -27 -36 -41 -55 -14 -19 -32
-44 -42 -55 -88 -105 -220 -287 -229 -317 -22 -69 9 -140 74 -175 28 -15 82
-17 472 -19 242 -1 443 -2 446 -3 4 0 -9 -54 -27 -118 -19 -65 -37 -127 -39
-138 -3 -11 -18 -67 -34 -125 -16 -58 -46 -163 -66 -235 -19 -71 -47 -169 -61
-216 -13 -47 -26 -94 -29 -105 -2 -10 -29 -109 -60 -219 -31 -110 -81 -290
-111 -400 -31 -110 -64 -229 -75 -265 -79 -271 -83 -306 -46 -360 32 -48 82
-72 136 -67 82 9 56 -26 491 650 314 487 349 542 480 743 52 81 102 158 110
173 9 14 50 78 91 141 41 63 97 149 123 190 26 41 114 179 196 305 420 650
588 912 612 954 51 85 29 177 -52 219 -43 21 -53 22 -327 22 -156 0 -283 3
-283 8 0 4 7 50 15 102 9 52 18 106 20 120 2 14 15 95 29 180 14 85 41 259 61
385 20 127 50 309 65 405 16 96 31 193 35 215 3 22 10 65 15 95 12 67 6 105
-23 147 -35 51 -124 78 -182 53z"/>
</g>
</svg>
